<svg width="259" height="63" viewBox="0 0 259 63" fill="none" xmlns="http://www.w3.org/2000/svg">
<path d="M47.4372 55.7687C48.1878 55.7687 48.5631 56.7445 47.8875 57.1948C43.0087 60.3473 37.3043 62.1487 31.0744 62.1487C24.8445 62.1487 19.14 60.3473 14.2612 57.1948C13.5857 56.7445 13.8859 55.7687 14.7115 55.7687H47.4372Z" fill="#672F8F"/>
<path d="M31.0744 32.0501C36.0282 32.0501 40.1565 35.653 40.9821 40.3817C41.1322 41.2824 41.8078 42.033 42.7085 42.033H58.3207C59.1464 42.033 59.7468 42.8586 59.4466 43.6842C58.5459 45.7859 57.345 47.7374 55.9939 49.5388C55.2433 50.5146 54.1174 51.04 52.9165 51.04L9.15718 50.965C7.95624 50.965 6.83036 50.4395 6.07977 49.4638C4.72871 47.6624 3.60283 45.7108 2.70212 43.6092C2.32682 42.8586 2.9273 41.9579 3.828 41.9579H19.5153C20.416 41.9579 21.1666 41.2073 21.3167 40.3066C21.9922 35.653 26.1205 32.0501 31.0744 32.0501Z" fill="#672F8F"/>
<path d="M31.0744 0C35.8781 0 40.5318 1.12588 44.585 3.07741C45.2605 3.45271 45.6358 4.27835 45.4106 5.02894L42.7835 12.9852C42.4083 14.1111 43.6843 15.0868 44.66 14.3362L51.4153 9.38236C52.0908 8.932 52.9165 9.00706 53.517 9.53247C55.4685 11.5591 57.1198 13.8108 58.3958 16.2878C58.7711 16.9633 58.5459 17.864 57.9454 18.3144L51.1901 23.2682C50.2144 23.9438 50.7398 25.52 51.9407 25.52H60.3473C61.173 25.52 61.8485 26.1205 61.9236 26.8711C62.0737 28.2221 62.2238 29.6482 62.2238 31.0744C62.2238 32.5005 62.1487 33.8515 61.9236 35.2026C61.8485 35.9532 61.173 36.5537 60.3473 36.5537H53.9673C39.7812 36.5537 30.0235 23.4934 32.8758 9.98283V9.90777C32.9508 9.75765 33.101 9.68259 33.2511 9.68259L36.1033 9.23224C36.6287 9.15718 36.7788 8.55671 36.4786 8.18141L34.452 6.15483C34.3019 6.00471 34.2268 5.77953 34.3019 5.62941L34.7522 2.85224C34.7522 2.25177 34.2268 1.87647 33.7765 2.17671L31.4497 3.45271C31.2995 3.52777 31.0744 3.52777 30.8492 3.45271L28.5224 2.17671C28.072 1.95153 27.5466 2.32682 27.6217 2.85224L28.072 5.62941C28.072 5.85459 28.072 6.00471 27.9219 6.15483L25.8953 8.18141C25.52 8.55671 25.7452 9.15718 26.2706 9.23224L29.273 9.68259C29.348 9.68259 29.4231 9.75765 29.4231 9.83271C29.4231 9.83271 29.4231 9.83271 29.4231 9.90777C32.4254 23.4184 22.6678 36.6287 8.40659 36.6287H1.87647C1.05082 36.6287 0.375294 36.0283 0.300235 35.2777C0.0750588 33.8515 0 32.4254 0 31.0744C0 29.6482 0.0750588 28.2221 0.300235 26.8711C0.375294 26.1205 1.12588 25.52 1.87647 25.52H10.3581C11.5591 25.52 12.0094 24.0188 11.1087 23.2682L4.27835 18.3144C3.60282 17.864 3.45271 16.9633 3.828 16.2878C5.17906 13.8108 6.83036 11.5591 8.78189 9.53247C9.3073 8.932 10.208 8.932 10.8835 9.38236L17.7139 14.3362C18.6897 15.0118 19.9657 14.1111 19.5904 12.9852L16.8132 4.95388C16.588 4.2033 16.8882 3.37765 17.6388 3.00235C21.692 1.12588 26.2706 0 31.0744 0Z" fill="#672F8F"/>
<path d="M123.827 47.489V48.2723H106.166C106.166 47.9163 105.667 47.1329 105.311 46.7056C99.187 39.7268 95.4127 36.8782 93.5612 35.81C90.2854 33.9585 87.7929 32.9615 85.5853 32.8903V40.0828C85.5853 46.7056 86.8671 48.2723 86.8671 48.2723H73.4791C73.4791 48.2723 74.7609 46.7056 74.7609 40.0828L74.9033 22.5644C74.9746 14.9446 73.123 13.8764 73.123 13.8764H95.0567C114.213 13.8764 118.343 17.4371 118.343 23.3477C118.343 28.5463 112.718 32.7479 104.742 34.1721C111.364 39.8692 119.34 47.2041 123.827 47.489ZM85.5853 29.8993C88.0778 31.3236 91.3536 32.7479 96.837 32.7479C102.036 32.7479 107.519 30.3266 107.519 25.6266C107.519 18.9325 100.754 16.1552 92.7066 16.1552C89.4308 16.1552 87.6505 16.3689 86.0126 16.6537C85.7989 18.3628 85.6565 20.2144 85.6565 23.1341V29.8993H85.5853Z" fill="#672F8F"/>
<path d="M179.017 26.6948L178.162 26.9084C173.249 18.8613 168.762 17.0098 160.074 16.6537C159.861 17.9355 159.576 19.8583 159.576 22.6356V40.0828C159.576 46.7056 160.858 48.2723 160.858 48.2723H147.612C147.612 48.2723 148.751 46.7056 148.751 40.0828L148.894 22.5644C148.894 19.7871 148.68 17.8643 148.395 16.5825C139.636 16.9386 135.221 18.7901 130.307 26.8372L129.453 26.6235L131.589 14.1612L154.164 14.3037L176.738 14.1612L179.017 26.6948Z" fill="#672F8F"/>
<path d="M199.17 14.3749C199.17 14.3749 197.888 15.9416 197.888 22.5644V40.0828C197.888 46.7056 199.17 48.2723 199.17 48.2723H185.782C185.782 48.2723 187.064 46.7056 187.064 40.0828L187.206 22.5644C187.206 15.9416 185.782 14.3749 185.782 14.3749H199.17Z" fill="#672F8F"/>
<path d="M257.351 40.0828C257.351 46.7056 258.633 48.2723 258.633 48.2723H245.245C245.245 48.2723 246.527 46.7056 246.527 40.0828L246.598 31.466H221.816V40.0828C221.816 46.7056 223.098 48.2723 223.098 48.2723H209.852C209.852 48.2723 210.992 46.7056 210.992 40.0828L211.134 22.5644C211.134 15.9416 209.852 14.3749 209.852 14.3749H223.098C223.098 14.3749 221.816 15.9416 221.816 22.5644V29.1872H246.669L246.741 22.4932C246.741 15.8704 245.316 14.3037 245.316 14.3037H258.704C258.704 14.3037 257.423 15.8704 257.423 22.4932V40.0828H257.351Z" fill="#672F8F"/>
</svg>
